<mxfile host="app.diagrams.net" modified="2021-06-04T08:49:05.365Z" agent="5.0 (Windows NT 6.3; Win64; x64) AppleWebKit/537.36 (KHTML, like Gecko) Chrome/90.0.4430.212 Safari/537.36" etag="1VSauJqJ5Lodfsf0G2zd" version="14.7.3" type="github">
  <diagram id="A8ZHLsBg5jNTWYTJPtdr" name="Page-1">
    <mxGraphModel dx="868" dy="450" grid="1" gridSize="10" guides="1" tooltips="1" connect="1" arrows="1" fold="1" page="1" pageScale="1" pageWidth="850" pageHeight="1100" math="0" shadow="0">
      <root>
        <mxCell id="0" />
        <mxCell id="1" parent="0" />
        <mxCell id="eQ1egmPzLXoseRVbnO5j-1" value="" style="whiteSpace=wrap;html=1;aspect=fixed;" parent="1" vertex="1">
          <mxGeometry x="240" y="60" width="650" height="650" as="geometry" />
        </mxCell>
        <object label="" id="eQ1egmPzLXoseRVbnO5j-4">
          <mxCell style="ellipse;whiteSpace=wrap;html=1;" parent="1" vertex="1">
            <mxGeometry x="290" y="80" width="120" height="50" as="geometry" />
          </mxCell>
        </object>
        <mxCell id="eQ1egmPzLXoseRVbnO5j-5" value="" style="ellipse;whiteSpace=wrap;html=1;" parent="1" vertex="1">
          <mxGeometry x="590" y="70" width="190" height="80" as="geometry" />
        </mxCell>
        <mxCell id="eQ1egmPzLXoseRVbnO5j-9" value="" style="endArrow=none;html=1;" parent="1" edge="1">
          <mxGeometry width="50" height="50" relative="1" as="geometry">
            <mxPoint x="780" y="120" as="sourcePoint" />
            <mxPoint x="920" y="170" as="targetPoint" />
          </mxGeometry>
        </mxCell>
        <mxCell id="eQ1egmPzLXoseRVbnO5j-15" value="" style="ellipse;whiteSpace=wrap;html=1;" parent="1" vertex="1">
          <mxGeometry x="410" y="170" width="290" height="50" as="geometry" />
        </mxCell>
        <mxCell id="eQ1egmPzLXoseRVbnO5j-18" value="" style="endArrow=none;html=1;" parent="1" edge="1">
          <mxGeometry width="50" height="50" relative="1" as="geometry">
            <mxPoint x="210" y="250" as="sourcePoint" />
            <mxPoint x="210" y="250" as="targetPoint" />
            <Array as="points">
              <mxPoint x="310" y="120" />
            </Array>
          </mxGeometry>
        </mxCell>
        <mxCell id="XVeC--o7v-HrkIY68JHf-1" value="" style="ellipse;whiteSpace=wrap;html=1;" vertex="1" parent="1">
          <mxGeometry x="490" y="260" width="160" height="80" as="geometry" />
        </mxCell>
        <mxCell id="XVeC--o7v-HrkIY68JHf-4" value="" style="endArrow=none;html=1;" edge="1" parent="1">
          <mxGeometry width="50" height="50" relative="1" as="geometry">
            <mxPoint x="210" y="260" as="sourcePoint" />
            <mxPoint x="210" y="260" as="targetPoint" />
            <Array as="points">
              <mxPoint x="490" y="300" />
            </Array>
          </mxGeometry>
        </mxCell>
        <mxCell id="XVeC--o7v-HrkIY68JHf-16" value="" style="endArrow=none;html=1;exitX=0;exitY=0.5;exitDx=0;exitDy=0;" edge="1" parent="1" source="eQ1egmPzLXoseRVbnO5j-15">
          <mxGeometry width="50" height="50" relative="1" as="geometry">
            <mxPoint x="280" y="260" as="sourcePoint" />
            <mxPoint x="210" y="260" as="targetPoint" />
          </mxGeometry>
        </mxCell>
        <mxCell id="XVeC--o7v-HrkIY68JHf-17" value="" style="endArrow=none;dashed=1;html=1;dashPattern=1 3;strokeWidth=2;entryX=1;entryY=0.5;entryDx=0;entryDy=0;" edge="1" parent="1" target="eQ1egmPzLXoseRVbnO5j-15">
          <mxGeometry width="50" height="50" relative="1" as="geometry">
            <mxPoint x="920" y="190" as="sourcePoint" />
            <mxPoint x="630" y="230" as="targetPoint" />
          </mxGeometry>
        </mxCell>
        <mxCell id="XVeC--o7v-HrkIY68JHf-19" value="" style="endArrow=classic;html=1;" edge="1" parent="1" source="XVeC--o7v-HrkIY68JHf-1">
          <mxGeometry width="50" height="50" relative="1" as="geometry">
            <mxPoint x="580" y="500" as="sourcePoint" />
            <mxPoint x="910" y="470" as="targetPoint" />
          </mxGeometry>
        </mxCell>
        <mxCell id="XVeC--o7v-HrkIY68JHf-20" value="" style="ellipse;whiteSpace=wrap;html=1;" vertex="1" parent="1">
          <mxGeometry x="260" y="370" width="120" height="40" as="geometry" />
        </mxCell>
        <mxCell id="XVeC--o7v-HrkIY68JHf-21" value="HOME SCREEN" style="text;html=1;strokeColor=none;fillColor=none;align=center;verticalAlign=middle;whiteSpace=wrap;rounded=0;" vertex="1" parent="1">
          <mxGeometry x="300" y="380" width="40" height="20" as="geometry" />
        </mxCell>
        <mxCell id="XVeC--o7v-HrkIY68JHf-22" value="" style="ellipse;whiteSpace=wrap;html=1;" vertex="1" parent="1">
          <mxGeometry x="460" y="410" width="120" height="40" as="geometry" />
        </mxCell>
        <mxCell id="XVeC--o7v-HrkIY68JHf-23" value="" style="ellipse;whiteSpace=wrap;html=1;" vertex="1" parent="1">
          <mxGeometry x="460" y="360" width="120" height="40" as="geometry" />
        </mxCell>
        <mxCell id="XVeC--o7v-HrkIY68JHf-24" value="" style="ellipse;whiteSpace=wrap;html=1;" vertex="1" parent="1">
          <mxGeometry x="460" y="510" width="120" height="40" as="geometry" />
        </mxCell>
        <mxCell id="XVeC--o7v-HrkIY68JHf-25" value="" style="ellipse;whiteSpace=wrap;html=1;" vertex="1" parent="1">
          <mxGeometry x="460" y="460" width="120" height="40" as="geometry" />
        </mxCell>
        <mxCell id="XVeC--o7v-HrkIY68JHf-26" value="" style="ellipse;whiteSpace=wrap;html=1;" vertex="1" parent="1">
          <mxGeometry x="680" y="510" width="120" height="50" as="geometry" />
        </mxCell>
        <mxCell id="XVeC--o7v-HrkIY68JHf-29" value="" style="endArrow=classic;html=1;" edge="1" parent="1">
          <mxGeometry relative="1" as="geometry">
            <mxPoint x="580" y="529.5" as="sourcePoint" />
            <mxPoint x="680" y="529.5" as="targetPoint" />
          </mxGeometry>
        </mxCell>
        <mxCell id="XVeC--o7v-HrkIY68JHf-30" value="&amp;lt;&amp;lt;uses&amp;gt;&amp;gt;" style="edgeLabel;resizable=0;html=1;align=center;verticalAlign=middle;" connectable="0" vertex="1" parent="XVeC--o7v-HrkIY68JHf-29">
          <mxGeometry relative="1" as="geometry">
            <mxPoint y="-9" as="offset" />
          </mxGeometry>
        </mxCell>
        <mxCell id="XVeC--o7v-HrkIY68JHf-39" value="" style="ellipse;whiteSpace=wrap;html=1;" vertex="1" parent="1">
          <mxGeometry x="560" y="580" width="120" height="40" as="geometry" />
        </mxCell>
        <mxCell id="XVeC--o7v-HrkIY68JHf-40" value="" style="ellipse;whiteSpace=wrap;html=1;" vertex="1" parent="1">
          <mxGeometry x="560" y="630" width="120" height="70" as="geometry" />
        </mxCell>
        <mxCell id="XVeC--o7v-HrkIY68JHf-45" value="" style="endArrow=none;html=1;exitX=0;exitY=0;exitDx=0;exitDy=0;" edge="1" parent="1" source="XVeC--o7v-HrkIY68JHf-20">
          <mxGeometry width="50" height="50" relative="1" as="geometry">
            <mxPoint x="490" y="570" as="sourcePoint" />
            <mxPoint x="190" y="330" as="targetPoint" />
          </mxGeometry>
        </mxCell>
        <mxCell id="XVeC--o7v-HrkIY68JHf-46" value="" style="endArrow=none;html=1;entryX=0;entryY=0.5;entryDx=0;entryDy=0;" edge="1" parent="1" target="XVeC--o7v-HrkIY68JHf-39">
          <mxGeometry width="50" height="50" relative="1" as="geometry">
            <mxPoint x="180" y="340" as="sourcePoint" />
            <mxPoint x="540" y="520" as="targetPoint" />
            <Array as="points">
              <mxPoint x="370" y="490" />
            </Array>
          </mxGeometry>
        </mxCell>
        <mxCell id="XVeC--o7v-HrkIY68JHf-49" value="" style="endArrow=none;html=1;entryX=0.025;entryY=0.32;entryDx=0;entryDy=0;entryPerimeter=0;" edge="1" parent="1" target="XVeC--o7v-HrkIY68JHf-40">
          <mxGeometry width="50" height="50" relative="1" as="geometry">
            <mxPoint x="180" y="340" as="sourcePoint" />
            <mxPoint x="540" y="510" as="targetPoint" />
            <Array as="points">
              <mxPoint x="350" y="550" />
            </Array>
          </mxGeometry>
        </mxCell>
        <mxCell id="XVeC--o7v-HrkIY68JHf-52" value="" style="endArrow=none;html=1;entryX=1;entryY=0.5;entryDx=0;entryDy=0;" edge="1" parent="1" target="XVeC--o7v-HrkIY68JHf-26">
          <mxGeometry width="50" height="50" relative="1" as="geometry">
            <mxPoint x="910" y="610" as="sourcePoint" />
            <mxPoint x="540" y="520" as="targetPoint" />
          </mxGeometry>
        </mxCell>
        <mxCell id="XVeC--o7v-HrkIY68JHf-53" value="&amp;lt;&amp;lt;extends&amp;gt;&amp;gt;" style="text;html=1;strokeColor=none;fillColor=none;align=center;verticalAlign=middle;whiteSpace=wrap;rounded=0;rotation=30;" vertex="1" parent="1">
          <mxGeometry x="830" y="540" width="40" height="20" as="geometry" />
        </mxCell>
        <mxCell id="XVeC--o7v-HrkIY68JHf-54" value="" style="endArrow=none;dashed=1;html=1;dashPattern=1 3;strokeWidth=2;exitX=1;exitY=0.5;exitDx=0;exitDy=0;" edge="1" parent="1" source="XVeC--o7v-HrkIY68JHf-39">
          <mxGeometry width="50" height="50" relative="1" as="geometry">
            <mxPoint x="490" y="570" as="sourcePoint" />
            <mxPoint x="900" y="620" as="targetPoint" />
          </mxGeometry>
        </mxCell>
        <mxCell id="XVeC--o7v-HrkIY68JHf-62" value="" style="endArrow=classic;html=1;exitX=1;exitY=0.5;exitDx=0;exitDy=0;entryX=0;entryY=0.5;entryDx=0;entryDy=0;" edge="1" parent="1" source="eQ1egmPzLXoseRVbnO5j-4" target="eQ1egmPzLXoseRVbnO5j-5">
          <mxGeometry relative="1" as="geometry">
            <mxPoint x="470" y="170" as="sourcePoint" />
            <mxPoint x="570" y="170" as="targetPoint" />
          </mxGeometry>
        </mxCell>
        <mxCell id="XVeC--o7v-HrkIY68JHf-63" value="&amp;lt;&amp;lt;uses&amp;gt;&amp;gt;" style="edgeLabel;resizable=0;html=1;align=center;verticalAlign=middle;" connectable="0" vertex="1" parent="XVeC--o7v-HrkIY68JHf-62">
          <mxGeometry relative="1" as="geometry">
            <mxPoint y="13" as="offset" />
          </mxGeometry>
        </mxCell>
        <mxCell id="XVeC--o7v-HrkIY68JHf-64" value="&amp;lt;&amp;lt;extends&amp;gt;&amp;gt;" style="text;html=1;strokeColor=none;fillColor=none;align=center;verticalAlign=middle;whiteSpace=wrap;rounded=0;rotation=15;" vertex="1" parent="1">
          <mxGeometry x="820" y="120" width="40" height="10" as="geometry" />
        </mxCell>
        <mxCell id="XVeC--o7v-HrkIY68JHf-66" value="" style="endArrow=block;dashed=1;endFill=0;endSize=12;html=1;" edge="1" parent="1">
          <mxGeometry width="160" relative="1" as="geometry">
            <mxPoint x="380" y="384.5" as="sourcePoint" />
            <mxPoint x="460" y="385" as="targetPoint" />
          </mxGeometry>
        </mxCell>
        <mxCell id="XVeC--o7v-HrkIY68JHf-67" value="" style="endArrow=block;dashed=1;endFill=0;endSize=12;html=1;exitX=1;exitY=0.75;exitDx=0;exitDy=0;exitPerimeter=0;entryX=0;entryY=0.5;entryDx=0;entryDy=0;" edge="1" parent="1" source="XVeC--o7v-HrkIY68JHf-20" target="XVeC--o7v-HrkIY68JHf-22">
          <mxGeometry width="160" relative="1" as="geometry">
            <mxPoint x="440" y="430" as="sourcePoint" />
            <mxPoint x="600" y="430" as="targetPoint" />
          </mxGeometry>
        </mxCell>
        <mxCell id="XVeC--o7v-HrkIY68JHf-68" value="" style="endArrow=block;dashed=1;endFill=0;endSize=12;html=1;exitX=1;exitY=1;exitDx=0;exitDy=0;entryX=0.008;entryY=0.3;entryDx=0;entryDy=0;entryPerimeter=0;" edge="1" parent="1" source="XVeC--o7v-HrkIY68JHf-20" target="XVeC--o7v-HrkIY68JHf-25">
          <mxGeometry width="160" relative="1" as="geometry">
            <mxPoint x="440" y="430" as="sourcePoint" />
            <mxPoint x="600" y="430" as="targetPoint" />
          </mxGeometry>
        </mxCell>
        <mxCell id="XVeC--o7v-HrkIY68JHf-69" value="" style="endArrow=block;dashed=1;endFill=0;endSize=12;html=1;exitX=0.733;exitY=1.025;exitDx=0;exitDy=0;exitPerimeter=0;" edge="1" parent="1" source="XVeC--o7v-HrkIY68JHf-20">
          <mxGeometry width="160" relative="1" as="geometry">
            <mxPoint x="440" y="430" as="sourcePoint" />
            <mxPoint x="460" y="520" as="targetPoint" />
          </mxGeometry>
        </mxCell>
        <mxCell id="XVeC--o7v-HrkIY68JHf-70" value="&amp;lt;&amp;lt;include&amp;gt;&amp;gt;" style="text;html=1;strokeColor=none;fillColor=none;align=center;verticalAlign=middle;whiteSpace=wrap;rounded=0;" vertex="1" parent="1">
          <mxGeometry x="410" y="370" height="10" as="geometry" />
        </mxCell>
        <mxCell id="XVeC--o7v-HrkIY68JHf-71" value="&amp;lt;&amp;lt;include&amp;gt;&amp;gt;" style="text;html=1;strokeColor=none;fillColor=none;align=center;verticalAlign=middle;whiteSpace=wrap;rounded=0;rotation=30;" vertex="1" parent="1">
          <mxGeometry x="420" y="425" height="10" as="geometry" />
        </mxCell>
        <mxCell id="XVeC--o7v-HrkIY68JHf-72" value="&amp;lt;&amp;lt;include&amp;gt;&amp;gt;" style="text;html=1;strokeColor=none;fillColor=none;align=center;verticalAlign=middle;whiteSpace=wrap;rounded=0;rotation=45;" vertex="1" parent="1">
          <mxGeometry x="370" y="430" width="40" height="20" as="geometry" />
        </mxCell>
        <mxCell id="XVeC--o7v-HrkIY68JHf-73" value="&amp;lt;&amp;lt;include&amp;gt;&amp;gt;" style="text;html=1;strokeColor=none;fillColor=none;align=center;verticalAlign=middle;whiteSpace=wrap;rounded=0;rotation=15;" vertex="1" parent="1">
          <mxGeometry x="400" y="390" width="40" height="20" as="geometry" />
        </mxCell>
        <mxCell id="XVeC--o7v-HrkIY68JHf-74" value="(OR)" style="text;html=1;strokeColor=none;fillColor=none;align=center;verticalAlign=middle;whiteSpace=wrap;rounded=0;" vertex="1" parent="1">
          <mxGeometry x="760" y="590" width="40" height="20" as="geometry" />
        </mxCell>
        <mxCell id="XVeC--o7v-HrkIY68JHf-75" value="(OR)" style="text;html=1;strokeColor=none;fillColor=none;align=center;verticalAlign=middle;whiteSpace=wrap;rounded=0;" vertex="1" parent="1">
          <mxGeometry x="770" y="170" width="40" height="20" as="geometry" />
        </mxCell>
        <mxCell id="XVeC--o7v-HrkIY68JHf-76" value="Extends" style="endArrow=block;endSize=16;endFill=0;html=1;entryX=0.994;entryY=0.35;entryDx=0;entryDy=0;entryPerimeter=0;" edge="1" parent="1" target="XVeC--o7v-HrkIY68JHf-1">
          <mxGeometry width="160" relative="1" as="geometry">
            <mxPoint x="930" y="204.46006217056356" as="sourcePoint" />
            <mxPoint x="600" y="210" as="targetPoint" />
          </mxGeometry>
        </mxCell>
        <mxCell id="XVeC--o7v-HrkIY68JHf-80" value="EXPO" style="text;html=1;strokeColor=none;fillColor=none;align=center;verticalAlign=middle;whiteSpace=wrap;rounded=0;" vertex="1" parent="1">
          <mxGeometry x="500" y="370" width="40" height="20" as="geometry" />
        </mxCell>
        <mxCell id="XVeC--o7v-HrkIY68JHf-81" value="Past Contests" style="text;html=1;strokeColor=none;fillColor=none;align=center;verticalAlign=middle;whiteSpace=wrap;rounded=0;" vertex="1" parent="1">
          <mxGeometry x="490" y="420" width="40" height="20" as="geometry" />
        </mxCell>
        <mxCell id="XVeC--o7v-HrkIY68JHf-82" value="Profile" style="text;html=1;strokeColor=none;fillColor=none;align=center;verticalAlign=middle;whiteSpace=wrap;rounded=0;" vertex="1" parent="1">
          <mxGeometry x="490" y="470" width="40" height="20" as="geometry" />
        </mxCell>
        <mxCell id="XVeC--o7v-HrkIY68JHf-83" value="Live contests" style="text;html=1;strokeColor=none;fillColor=none;align=center;verticalAlign=middle;whiteSpace=wrap;rounded=0;" vertex="1" parent="1">
          <mxGeometry x="490" y="520" width="40" height="20" as="geometry" />
        </mxCell>
        <mxCell id="XVeC--o7v-HrkIY68JHf-84" value="Is Reviewer" style="text;html=1;strokeColor=none;fillColor=none;align=center;verticalAlign=middle;whiteSpace=wrap;rounded=0;" vertex="1" parent="1">
          <mxGeometry x="720" y="520" width="40" height="20" as="geometry" />
        </mxCell>
        <mxCell id="XVeC--o7v-HrkIY68JHf-86" style="edgeStyle=orthogonalEdgeStyle;rounded=0;orthogonalLoop=1;jettySize=auto;html=1;exitX=0.5;exitY=0;exitDx=0;exitDy=0;entryX=0.75;entryY=0;entryDx=0;entryDy=0;startArrow=none;" edge="1" parent="1">
          <mxGeometry relative="1" as="geometry">
            <mxPoint x="620" y="590" as="sourcePoint" />
            <mxPoint x="620" y="590" as="targetPoint" />
          </mxGeometry>
        </mxCell>
        <mxCell id="XVeC--o7v-HrkIY68JHf-90" value="view and vote" style="text;html=1;strokeColor=none;fillColor=none;align=center;verticalAlign=middle;whiteSpace=wrap;rounded=0;" vertex="1" parent="1">
          <mxGeometry x="580" y="590" width="70" height="20" as="geometry" />
        </mxCell>
        <mxCell id="XVeC--o7v-HrkIY68JHf-91" value="view,Review as per rubrics, comment" style="text;html=1;strokeColor=none;fillColor=none;align=center;verticalAlign=middle;whiteSpace=wrap;rounded=0;" vertex="1" parent="1">
          <mxGeometry x="585" y="655" width="70" height="20" as="geometry" />
        </mxCell>
        <mxCell id="XVeC--o7v-HrkIY68JHf-94" value="Incorrect Details" style="text;html=1;strokeColor=none;fillColor=none;align=center;verticalAlign=middle;whiteSpace=wrap;rounded=0;perimeterSpacing=3;strokeWidth=7;fontStyle=0;fontSize=13;" vertex="1" parent="1">
          <mxGeometry x="510" y="190" width="90" height="20" as="geometry" />
        </mxCell>
        <mxCell id="XVeC--o7v-HrkIY68JHf-95" value="Access Granted" style="text;html=1;strokeColor=none;fillColor=none;align=center;verticalAlign=middle;whiteSpace=wrap;rounded=0;fontSize=13;" vertex="1" parent="1">
          <mxGeometry x="545" y="280" width="40" height="40" as="geometry" />
        </mxCell>
        <mxCell id="XVeC--o7v-HrkIY68JHf-97" value="-Return Message" style="text;html=1;strokeColor=none;fillColor=none;align=center;verticalAlign=middle;whiteSpace=wrap;rounded=0;fontSize=13;rotation=-10;" vertex="1" parent="1">
          <mxGeometry x="300" y="190" width="40" height="20" as="geometry" />
        </mxCell>
        <mxCell id="XVeC--o7v-HrkIY68JHf-98" value="-Return Message" style="text;html=1;strokeColor=none;fillColor=none;align=center;verticalAlign=middle;whiteSpace=wrap;rounded=0;fontSize=13;rotation=5;" vertex="1" parent="1">
          <mxGeometry x="330" y="250" width="40" height="20" as="geometry" />
        </mxCell>
        <mxCell id="XVeC--o7v-HrkIY68JHf-99" value="-Return Message" style="text;html=1;strokeColor=none;fillColor=none;align=center;verticalAlign=middle;whiteSpace=wrap;rounded=0;fontSize=13;rotation=30;" vertex="1" parent="1">
          <mxGeometry x="320" y="470" width="40" height="20" as="geometry" />
        </mxCell>
        <mxCell id="XVeC--o7v-HrkIY68JHf-100" value="-Return Message" style="text;html=1;strokeColor=none;fillColor=none;align=center;verticalAlign=middle;whiteSpace=wrap;rounded=0;fontSize=13;rotation=30;" vertex="1" parent="1">
          <mxGeometry x="410" y="560" width="40" height="20" as="geometry" />
        </mxCell>
        <mxCell id="XVeC--o7v-HrkIY68JHf-101" value="Login" style="text;html=1;strokeColor=none;fillColor=none;align=center;verticalAlign=middle;whiteSpace=wrap;rounded=0;fontSize=13;" vertex="1" parent="1">
          <mxGeometry x="330" y="95" width="40" height="20" as="geometry" />
        </mxCell>
        <mxCell id="XVeC--o7v-HrkIY68JHf-102" value="Authenticate user details" style="text;html=1;strokeColor=none;fillColor=none;align=center;verticalAlign=middle;whiteSpace=wrap;rounded=0;fontSize=13;" vertex="1" parent="1">
          <mxGeometry x="655" y="100" width="65" height="30" as="geometry" />
        </mxCell>
        <mxCell id="XVeC--o7v-HrkIY68JHf-103" value="Extends" style="endArrow=block;endSize=16;endFill=0;html=1;fontSize=13;entryX=1.008;entryY=0.371;entryDx=0;entryDy=0;entryPerimeter=0;" edge="1" parent="1" target="XVeC--o7v-HrkIY68JHf-40">
          <mxGeometry width="160" relative="1" as="geometry">
            <mxPoint x="900" y="620" as="sourcePoint" />
            <mxPoint x="600" y="590" as="targetPoint" />
          </mxGeometry>
        </mxCell>
        <mxCell id="XVeC--o7v-HrkIY68JHf-105" value="Actor" style="shape=umlActor;verticalLabelPosition=bottom;verticalAlign=top;html=1;outlineConnect=0;shadow=0;sketch=0;fontSize=13;strokeWidth=7;textDirection=ltr;" vertex="1" parent="1">
          <mxGeometry x="150" y="240" width="30" height="60" as="geometry" />
        </mxCell>
        <mxCell id="XVeC--o7v-HrkIY68JHf-106" value="Actor" style="shape=umlActor;verticalLabelPosition=bottom;verticalAlign=top;html=1;outlineConnect=0;shadow=0;sketch=0;fontSize=13;strokeWidth=7;gradientColor=none;" vertex="1" parent="1">
          <mxGeometry x="940" y="150" width="30" height="60" as="geometry" />
        </mxCell>
        <mxCell id="XVeC--o7v-HrkIY68JHf-107" value="Actor" style="shape=umlActor;verticalLabelPosition=bottom;verticalAlign=top;html=1;outlineConnect=0;shadow=0;sketch=0;fontSize=13;strokeWidth=7;gradientColor=none;" vertex="1" parent="1">
          <mxGeometry x="910" y="435" width="30" height="60" as="geometry" />
        </mxCell>
        <mxCell id="XVeC--o7v-HrkIY68JHf-108" value="Actor" style="shape=umlActor;verticalLabelPosition=bottom;verticalAlign=top;html=1;outlineConnect=0;shadow=0;sketch=0;fontSize=13;strokeWidth=7;gradientColor=none;" vertex="1" parent="1">
          <mxGeometry x="920" y="580" width="30" height="60" as="geometry" />
        </mxCell>
        <mxCell id="XVeC--o7v-HrkIY68JHf-111" value="&amp;lt;&amp;lt;uses&amp;gt;&amp;gt;" style="text;html=1;strokeColor=none;fillColor=none;align=center;verticalAlign=middle;whiteSpace=wrap;rounded=0;shadow=0;sketch=0;fontSize=13;rotation=30;" vertex="1" parent="1">
          <mxGeometry x="710" y="350" width="40" height="20" as="geometry" />
        </mxCell>
      </root>
    </mxGraphModel>
  </diagram>
</mxfile>
